<svg width="2967" height="1135" viewBox="0 0 2967 1135" fill="none" xmlns="http://www.w3.org/2000/svg">
<path d="M16.8454 542.584C16.8454 504.313 23.6638 470.881 37.3005 442.288C51.3771 413.695 70.2925 391.7 94.0468 376.304C118.241 360.908 145.074 353.21 174.547 353.21C200.061 353.21 222.056 358.268 240.531 368.386C259.007 378.503 273.303 392.14 283.421 409.296V357.828H412.75V727.999H283.421V676.531C273.303 693.687 258.787 707.324 239.872 717.442C221.396 727.559 199.621 732.618 174.547 732.618C145.074 732.618 118.241 724.92 94.0468 709.523C70.2925 694.127 51.3771 672.133 37.3005 643.539C23.6638 614.506 16.8454 580.855 16.8454 542.584ZM283.421 542.584C283.421 518.83 276.823 500.134 263.626 486.497C250.869 472.861 235.033 466.042 216.117 466.042C196.762 466.042 180.706 472.861 167.949 486.497C155.192 499.694 148.814 518.39 148.814 542.584C148.814 566.338 155.192 585.254 167.949 599.33C180.706 612.967 196.762 619.785 216.117 619.785C235.033 619.785 250.869 612.967 263.626 599.33C276.823 585.693 283.421 566.778 283.421 542.584Z" fill="#F1F1F1"/>
<path d="M729.45 354.529C772.12 354.529 805.992 368.826 831.066 397.419C856.14 425.572 868.677 463.843 868.677 512.231V727.999H739.348V529.387C739.348 508.272 733.849 491.776 722.852 479.899C711.855 467.582 697.118 461.423 678.643 461.423C659.287 461.423 644.111 467.582 633.114 479.899C622.116 491.776 616.618 508.272 616.618 529.387V727.999H487.289V357.828H616.618V410.616C628.055 393.9 643.451 380.483 662.807 370.365C682.162 359.808 704.376 354.529 729.45 354.529Z" fill="#F1F1F1"/>
<path d="M1005.3 323.517C982.429 323.517 963.954 317.358 949.877 305.041C936.24 292.284 929.422 276.448 929.422 257.533C929.422 238.177 936.24 222.121 949.877 209.364C963.954 196.607 982.429 190.229 1005.3 190.229C1027.74 190.229 1045.77 196.607 1059.41 209.364C1073.49 222.121 1080.53 238.177 1080.53 257.533C1080.53 276.448 1073.49 292.284 1059.41 305.041C1045.77 317.358 1027.74 323.517 1005.3 323.517ZM1069.31 357.828V727.999H939.98V357.828H1069.31Z" fill="#F1F1F1"/>
<path d="M1302.2 730.746C1268.76 730.746 1238.85 725.247 1212.46 714.25C1186.5 702.813 1165.83 687.416 1150.43 668.061C1135.48 648.266 1127.12 626.051 1125.36 601.417H1250.73C1252.49 613.294 1257.99 622.532 1267.22 629.13C1276.46 635.729 1287.9 639.028 1301.54 639.028C1312.09 639.028 1320.45 636.829 1326.61 632.43C1332.77 628.031 1335.85 622.312 1335.85 615.274C1335.85 606.036 1330.79 599.218 1320.67 594.819C1310.55 590.42 1293.84 585.581 1270.52 580.302C1244.13 575.023 1222.14 569.085 1204.54 562.486C1186.94 555.888 1171.55 545.111 1158.35 530.154C1145.59 515.198 1139.22 494.963 1139.22 469.449C1139.22 447.454 1145.15 427.659 1157.03 410.063C1168.91 392.028 1186.28 377.731 1209.16 367.174C1232.47 356.616 1260.41 351.338 1292.96 351.338C1341.35 351.338 1379.4 363.215 1407.11 386.969C1434.82 410.723 1450.88 441.956 1455.28 480.666H1338.49C1336.29 468.789 1331.01 459.771 1322.65 453.613C1314.73 447.014 1303.96 443.715 1290.32 443.715C1279.76 443.715 1271.62 445.695 1265.91 449.654C1260.63 453.613 1257.99 459.111 1257.99 466.15C1257.99 474.948 1263.05 481.766 1273.16 486.605C1283.28 491.004 1299.56 495.623 1321.99 500.461C1348.83 506.18 1371.04 512.559 1388.64 519.597C1406.67 526.635 1422.29 538.072 1435.48 553.909C1449.12 569.305 1455.94 590.42 1455.94 617.253C1455.94 638.808 1449.56 658.163 1436.8 675.319C1424.49 692.475 1406.67 706.112 1383.36 716.229C1360.48 725.907 1333.43 730.746 1302.2 730.746Z" fill="#F1F1F1"/>
<path d="M1495.66 544.456C1495.66 506.185 1502.48 472.753 1516.12 444.16C1530.19 415.567 1549.11 393.572 1572.86 378.176C1597.06 362.78 1623.89 355.082 1653.36 355.082C1678.88 355.082 1700.87 360.14 1719.35 370.258C1737.82 380.376 1752.12 394.012 1762.24 411.168V359.701H1891.57V729.871H1762.24V678.404C1752.12 695.559 1737.6 709.196 1718.69 719.314C1700.21 729.431 1678.44 734.49 1653.36 734.49C1623.89 734.49 1597.06 726.792 1572.86 711.396C1549.11 695.999 1530.19 674.005 1516.12 645.412C1502.48 616.379 1495.66 582.727 1495.66 544.456ZM1762.24 544.456C1762.24 520.702 1755.64 502.006 1742.44 488.369C1729.69 474.733 1713.85 467.914 1694.93 467.914C1675.58 467.914 1659.52 474.733 1646.77 488.369C1634.01 501.566 1627.63 520.262 1627.63 544.456C1627.63 568.21 1634.01 587.126 1646.77 601.202C1659.52 614.839 1675.58 621.657 1694.93 621.657C1713.85 621.657 1729.69 614.839 1742.44 601.202C1755.64 587.565 1762.24 568.65 1762.24 544.456Z" fill="#F1F1F1"/>
<path d="M2950.49 536.753C2950.49 546.87 2949.83 556.988 2948.51 567.105H2703.71C2705.03 587.34 2710.53 602.517 2720.21 612.634C2730.32 622.312 2743.08 627.151 2758.48 627.151C2780.03 627.151 2795.43 617.473 2804.67 598.118H2942.57C2936.85 623.632 2925.64 646.506 2908.92 666.741C2892.65 686.537 2871.97 702.153 2846.9 713.59C2821.82 725.027 2794.11 730.746 2763.76 730.746C2727.25 730.746 2694.69 723.048 2666.1 707.651C2637.95 692.255 2615.73 670.26 2599.46 641.667C2583.62 613.074 2575.7 579.422 2575.7 540.712C2575.7 502.001 2583.62 468.569 2599.46 440.416C2615.29 411.823 2637.29 389.828 2665.44 374.432C2694.03 359.036 2726.81 351.338 2763.76 351.338C2800.27 351.338 2832.6 358.816 2860.75 373.772C2888.91 388.728 2910.9 410.283 2926.74 438.436C2942.57 466.15 2950.49 498.922 2950.49 536.753ZM2818.52 504.421C2818.52 488.584 2813.24 476.267 2802.69 467.469C2792.13 458.232 2778.93 453.613 2763.1 453.613C2747.26 453.613 2734.28 458.012 2724.17 466.81C2714.05 475.168 2707.45 487.705 2704.37 504.421H2818.52Z" fill="#F1F1F1"/>
<path d="M2245.42 463.904L2251.62 519.23L2262.08 586.983L2250.91 618.161L2244.54 646.282L2241.83 683.02L2246.49 722.732L2256.36 745.994L2266.63 762.989L2276.92 772.857L2289.89 753.115L2298.82 731.025L2303.09 702.773L2303.32 672.172L2297.05 638.23L2285.97 607.344L2272.65 585.545L2267.34 556.277L2262.14 532.048L2254.28 496.749L2245.42 463.904Z" fill="#FFCC00"/>
<path d="M2204.21 352.452L2204.59 408.123L2207.91 476.598L2193.55 506.437L2184.28 533.739L2177.74 569.992L2178.22 609.974L2185.61 634.14L2194.04 652.116L2203.24 663.005L2218.21 644.727L2229.39 623.69L2236.6 596.04L2240.03 565.631L2237.33 531.22L2229.55 499.345L2218.58 476.273L2216.36 446.61L2213.72 421.971L2209.59 386.043L2204.21 352.452Z" fill="#FFCC00"/>
<path d="M2174.69 239.798L2168.29 295.1L2163.24 363.469L2145.34 391.335L2132.81 417.304L2121.91 452.491L2117.51 492.232L2121.9 517.119L2128.08 535.988L2135.89 547.917L2152.97 531.6L2166.63 512.083L2177.15 485.517L2184.26 455.752L2185.78 421.269L2181.94 388.683L2173.86 364.447L2175.28 334.735L2175.66 309.957L2175.94 273.793L2174.69 239.798Z" fill="#FFCC00"/>
<path d="M2142 129.245L2133.67 184.29L2126.24 252.441L2107.38 279.666L2093.95 305.182L2081.83 339.966L2076.05 379.53L2079.56 404.555L2085.08 423.628L2092.47 435.823L2110.11 420.111L2124.44 401.083L2135.89 374.901L2144.03 345.402L2146.75 310.993L2144.05 278.293L2136.82 253.789L2139.27 224.145L2140.52 199.395L2142.06 163.263L2142 129.245Z" fill="#FFCC00"/>
<path d="M2492.66 1005.64L2509.34 1013.81L2474.9 987.755L2435.08 953.82L2400.03 923.957L2363.65 888.559L2334.87 859.087L2301.21 820.503L2266.58 777.245L2236.36 737.199L2206.41 692.974L2180.86 651.961L2155.81 609.72L2144.58 588.051L2129.93 560.716L2099.08 490.435L2083.48 451.299L2069.61 411.432L2056.37 368.248L2046.91 331.592L2051.97 324.359L2064.73 294.538L2068.64 265.425L2065.32 231.248L2060.36 209.969L2048.03 185.716L2031.65 159.113L2029.84 114.126L2029.99 71.3576L2033.71 25.0378L2026.31 69.87L2021.48 113.605L2020.71 159.689L2006.51 178.935L2000.93 194.524L1998.97 225.856L2005.93 275.777L2020.53 317.367L2033.75 334.127L2037.57 367.077L2029.99 354.024L2019.34 343.295L2001.08 326.64L1979.25 313.537L1950.42 298.321L1932.87 256.966L1915.84 207.256L1925.4 248.952L1939.12 298.036L1944.06 326.442L1955.87 359.051L1971.38 386.02L1992.3 413.745L2012.15 431.757L2035.7 444.128L2058.65 452.688L2066.78 483.809L2041.53 465.041L2017.97 452.669L1989.62 443.354L1972.07 435.55L1947.26 396.26L1925.76 357.595L1932.95 376.915L1950.26 415.319L1970.53 453.488L1977.69 479.936L1995.53 509.985L2011.57 528.598L2042.46 551.073L2070.56 564.566L2102.73 573.281L2119.31 609.962L2092.21 594.014L2070.12 585.089L2039.91 578.593L2020.37 575.699L2006.3 559.305L1989.17 538.107L1960.91 500.279L1982.27 541.033L1995.59 562.832L2013.59 583.664L2020.17 599.172L2035.92 629.091L2058.46 651.045L2093.53 673.78L2125.44 686.672L2154.42 692.671L2170.77 692.851L2193.15 724.022L2168.37 711.154L2151.05 706.301L2131.16 702.545L2109.41 701.61L2086.3 702.267L2068.41 686.474L2054.94 673.892L2036.81 655.148L2006.57 622.23L2028.46 654.628L2048.28 679.768L2062.49 694.073L2082.7 712.947L2089.18 723.415L2099.44 740.411L2112.06 753.359L2130.44 767.925L2155.95 782.515L2194.62 794.57L2220.92 796.628L2249.06 795.865L2283.46 836.172L2340.28 893.394L2370.05 920.412L2410.38 953.12L2434.03 970.53L2451.82 981.284L2467.15 991.046L2479.65 998.955L2492.66 1005.64Z" fill="#FFCC00"/>
<path d="M2527.38 527.685L2505.09 555.595L2479.1 591.075L2459.89 600.152L2444.24 610.021L2426.35 625.458L2410.45 645.586L2404.37 660.618L2401.32 672.984L2401.51 682.128L2416.35 679.057L2430.42 673.085L2445.18 662.209L2459.16 648.431L2471.72 630.187L2480.7 611.151L2484.55 595.219L2495.42 579.535L2504.05 566.184L2516.5 546.603L2527.38 527.685Z" fill="#FFCC00"/>
<path d="M2559.24 458.431L2534.16 483.859L2504.6 516.427L2484.55 523.446L2467.96 531.627L2448.55 545.109L2430.63 563.463L2423.02 577.778L2418.69 589.758L2417.92 598.872L2433 597.369L2447.62 592.9L2463.43 583.626L2478.78 571.385L2493.17 554.554L2504.1 536.561L2509.59 521.119L2522.04 506.656L2532.02 494.281L2546.44 476.108L2559.24 458.431Z" fill="#FFCC00"/>
<path d="M2596.96 393.938L2568.96 416.119L2535.66 444.843L2514.9 449.366L2497.43 455.463L2476.53 466.479L2456.5 482.513L2447.2 495.794L2441.45 507.156L2439.58 516.109L2454.73 516.455L2469.78 513.801L2486.6 506.523L2503.33 496.244L2519.66 481.292L2532.7 464.765L2540.03 450.107L2554.15 437.27L2565.57 426.203L2582.1 409.923L2596.96 393.938Z" fill="#FFCC00"/>
<path d="M2632.28 328.954L2603.53 350.145L2569.24 377.689L2548.33 381.485L2530.67 386.969L2509.39 397.249L2488.82 412.574L2479.06 425.522L2472.91 436.677L2470.73 445.559L2485.86 446.434L2500.99 444.306L2518.06 437.62L2535.14 427.931L2551.98 413.558L2565.59 397.496L2573.43 383.103L2587.99 370.766L2599.78 360.105L2616.87 344.411L2632.28 328.954Z" fill="#FFCC00"/>
<path d="M2393.78 885.599L2397.64 896.874L2393.84 869.431L2391.17 835.97L2388.81 806.525L2388.37 773.964L2388.68 747.538L2390.92 714.764L2394.83 679.43L2399.29 647.555L2405.76 613.904L2412.78 583.71L2420.58 553.185L2425.31 538.26L2431.07 519.212L2448.96 473.334L2459.63 448.506L2471.43 424.127L2485.01 398.528L2497.35 377.608L2502.92 376.624L2522.24 368.886L2537.22 357.453L2551.22 340.441L2558.62 328.536L2564.03 311.94L2568.67 292.443L2588.26 271.214L2607.72 251.879L2630.43 232.556L2606.73 249.534L2584.7 267.187L2563.44 287.742L2548.27 290.031L2538.67 294.569L2523.57 307.897L2504.08 333.699L2491.83 359.191L2490.23 372.789L2477.01 389.469L2479.5 380.111L2479.53 370.41L2478.8 354.574L2474.84 338.727L2468.67 318.746L2479.47 292.022L2494.29 261.744L2479.71 284.998L2463.67 313.488L2453.02 328.616L2443.59 348.765L2438.39 368.038L2435.31 390.105L2436.14 407.279L2441.21 423.577L2447.74 437.872L2437.31 455.676L2434.37 435.707L2429.29 419.41L2420.66 402.319L2416.24 390.819L2422.8 361.739L2430.59 334.448L2425.09 346.471L2415.52 371.749L2407.4 398.259L2398.65 413.505L2393.11 435.229L2391.94 450.947L2395.76 475.157L2402.39 494.024L2413.03 512.571L2403.91 536.736L2398.85 517.205L2392.88 503.135L2382.12 486.483L2374.57 476.31L2375.62 462.487L2377.47 445.099L2381.81 415.119L2373.01 443.3L2369.17 459.231L2367.88 476.845L2363.83 486.866L2357.4 507.584L2357.67 527.767L2363.26 553.99L2371.89 574.314L2382.32 590.183L2389.65 597.68L2385.66 621.974L2380.26 604.895L2374.61 594.84L2367.28 584.11L2357.84 573.819L2347.06 563.635L2346.11 548.355L2345.71 536.534L2345.99 519.81L2347.2 491.157L2342.43 515.783L2340.02 536.18L2339.98 549.114L2340.58 566.846L2338.77 574.533L2335.72 586.9L2335.57 598.496L2337.3 613.443L2342.25 631.636L2354.33 654.647L2365.32 667.509L2378.44 679.931L2375.76 713.819L2375.58 765.557L2376.82 791.319L2380.28 824.447L2383.11 843.078L2386.3 856.024L2388.83 867.406L2390.91 876.668L2393.78 885.599Z" fill="#FFCC00"/>
</svg>
